<svg xmlns="http://www.w3.org/2000/svg" width="24" height="24" viewBox="0 0 24 24"><title>ico_bulb</title><g id="ico_bulb"><path d="M19,9a7,7,0,0,0-7-7,7.45,7.45,0,0,0-1.4.13,7,7,0,0,0-4.26,11,8.59,8.59,0,0,1,1.41,2.94A1,1,0,0,0,7,17H7a1,1,0,0,0,1,1,4,4,0,0,0,8,0,1,1,0,0,0,1-1h0a1,1,0,0,0-.74-.94,7.68,7.68,0,0,1,1.3-2.81A7,7,0,0,0,19,9Zm-3,3a9.63,9.63,0,0,0-1.77,4H12.75V12.85a2,2,0,1,0-1.5,0V16H9.78A10.69,10.69,0,0,0,8,11.93a5,5,0,0,1,3-7.84A5.86,5.86,0,0,1,12,4a5,5,0,0,1,5,5A4.91,4.91,0,0,1,16,12Z"/></g></svg>