<svg width="24" height="24" viewBox="0 0 24 24" fill="none" xmlns="http://www.w3.org/2000/svg">
<path d="M18.2373 15.08L13.1029 15.94C12.1684 14.85 10.7919 14.13 9.23447 14.13C9.22443 14.13 9.21438 14.13 9.20433 14.13L7.2651 1.78001L8.13926 1.63001L8.95313 1.50001L9.33495 3.87001L11.1938 3.58001L10.812 1.18001L11.646 1.04001C12.1986 0.950009 12.711 1.31001 12.8015 1.85001L13.7359 7.50001L13.8062 7.49001L15.9866 7.12001C16.5091 7.03001 17.0015 7.39001 17.0919 7.94001L18.2373 15.08ZM13.4043 10.38L12.922 7.64001L10.7216 8.02001L11.1938 10.76L13.4043 10.38ZM22.9799 16.83L22.8594 15.99C22.7991 15.69 22.4675 15.5 22.1058 15.55L18.4082 16.17L12.6206 17.14C12.9823 17.72 13.1833 18.4 13.1833 19.12C13.1833 19.49 13.123 19.85 13.0225 20.19L21.2718 18.81C22.367 18.62 23.1206 17.74 22.9799 16.83ZM8.26988 15.36L6.3005 2.81001L6.15983 1.97001L6.13974 1.83001C6.04931 1.29001 5.55696 0.930009 5.03447 1.02001L2.80385 1.39001C2.28136 1.48001 1.91964 1.99001 2.01007 2.53001C2.1005 3.07001 2.59285 3.43001 3.11533 3.34001L4.62251 3.09001L6.67227 16.14C7.13447 15.78 7.68711 15.5 8.26988 15.36ZM13.1833 19.12C13.1833 19.49 13.123 19.85 13.0225 20.19C12.5603 21.81 11.033 23 9.23447 23C7.05409 23 5.28567 21.26 5.28567 19.12C5.28567 17.93 5.81821 16.88 6.67227 16.15C7.13447 15.79 7.67706 15.5 8.26988 15.36C8.58136 15.28 8.89285 15.24 9.23447 15.24C10.6814 15.24 11.9373 16 12.6206 17.14C12.9823 17.72 13.1833 18.4 13.1833 19.12ZM11.2139 19.12C11.2139 18.05 10.3297 17.18 9.24452 17.18C8.15935 17.18 7.27514 18.05 7.27514 19.12C7.27514 20.19 8.15935 21.06 9.24452 21.06C10.3297 21.06 11.2139 20.19 11.2139 19.12Z" fill="black"/>
</svg>
