<svg xmlns="http://www.w3.org/2000/svg" width="24" height="24" viewBox="0 0 24 24"><title>ico_fingerprint</title><g id="ico_fingerprint"><path d="M3,17.56a.74.74,0,0,1-.21,0,.75.75,0,0,1-.5-.93,19.14,19.14,0,0,0,.8-5.5,8.82,8.82,0,0,1,.67-3.39.75.75,0,0,1,1.39.57,7.33,7.33,0,0,0-.56,2.82A20.66,20.66,0,0,1,3.72,17,.75.75,0,0,1,3,17.56Zm18,1a37.61,37.61,0,0,0,.74-7.47A9.23,9.23,0,0,0,12.41,2,9.5,9.5,0,0,0,6.53,4a.75.75,0,1,0,.93,1.18A8,8,0,0,1,12.41,3.5a7.73,7.73,0,0,1,7.84,7.6,36.07,36.07,0,0,1-.71,7.17.75.75,0,0,0,.59.88h.15A.75.75,0,0,0,21,18.57Zm-3.45,2.12a32.72,32.72,0,0,0,1-4.58.75.75,0,0,0-.64-.85.74.74,0,0,0-.85.64,31.36,31.36,0,0,1-.94,4.37.75.75,0,1,0,1.44.42ZM6,19.25A23.49,23.49,0,0,0,7.44,11.1a4.9,4.9,0,0,1,5-4.82,4.9,4.9,0,0,1,5,4.82c0,.29,0,.59,0,.88a.75.75,0,0,0,.73.77h0a.75.75,0,0,0,.75-.73q0-.46,0-.92a6.4,6.4,0,0,0-6.47-6.32A6.4,6.4,0,0,0,5.94,11.1a21.94,21.94,0,0,1-1.37,7.61.75.75,0,0,0,1.4.53ZM17,4,8.47,20.68a24,24,0,0,0,1.11-3.51.75.75,0,1,0-1.46-.35,22.73,22.73,0,0,1-1,3.29.75.75,0,0,0,.41,1,.74.74,0,0,0,.28.06A.75.75,0,0,0,8.47,20.68ZM8.85,17m5.46,4.5A31,31,0,0,0,16,11.1a3.61,3.61,0,0,0-7.22,0c0,.6,0,1.22-.07,1.84a.75.75,0,0,0,.69.81.77.77,0,0,0,.81-.69c.05-.66.08-1.32.08-2a2.11,2.11,0,0,1,4.22,0A29.94,29.94,0,0,1,12.9,21a.75.75,0,0,0,1.41.5Zm-3-.07A28.18,28.18,0,0,0,13.16,11.1a.75.75,0,0,0-1.5,0,26.69,26.69,0,0,1-1.78,9.78.75.75,0,0,0,.42,1,.73.73,0,0,0,.28.05A.75.75,0,0,0,11.28,21.44Z"/></g></svg>