<svg width="24" height="24" viewBox="0 0 24 24" fill="none" xmlns="http://www.w3.org/2000/svg">
<path fill-rule="evenodd" clip-rule="evenodd" d="M10 8C10 4.7 12.7 2 16 2C19.3 2 22 4.7 22 8C22 11.3 19.3 14 16 14C12.7 14 10 11.3 10 8ZM17 9H20V7H17V4H15V7H12V9H15V12H17V9Z" fill="black"/>
<path d="M8 21C8 22.1046 7.10457 23 6 23C4.89543 23 4 22.1046 4 21C4 19.8954 4.89543 19 6 19C7.10457 19 8 19.8954 8 21Z" fill="black"/>
<path d="M14 23C15.1046 23 16 22.1046 16 21C16 19.8954 15.1046 19 14 19C12.8954 19 12 19.8954 12 21C12 22.1046 12.8954 23 14 23Z" fill="black"/>
<path d="M7.1 15H19L18.5 16.3C18.3 16.7 17.9 17 17.5 17H6.1C5.6 17 5.2 16.7 5.1 16.2L3.2 5H2C1.5 5 1 4.6 1 4C1 3.4 1.5 3 2 3H4.1C4.6 3 5 3.4 5.1 3.8L5.5 6H9.2C9 6.6 8.9 7.3 8.9 8H5.8L7.1 15Z" fill="black"/>
</svg>
