<svg width="24" height="25" viewBox="0 0 24 25" fill="none" xmlns="http://www.w3.org/2000/svg">
<path fill-rule="evenodd" clip-rule="evenodd" d="M18.38 5.96876C16.8263 4.49569 14.7983 3.62478 12.6602 3.51241C10.5221 3.40004 8.41399 4.05358 6.71441 5.35568C5.01482 6.65777 3.83511 8.52311 3.38709 10.6167C2.93908 12.7104 3.25212 14.8952 4.27 16.7788L3 21.4188L7.75 20.1688C9.05415 20.8806 10.5143 21.2585 12 21.2688C13.7649 21.2517 15.4859 20.7161 16.9488 19.7285C18.4117 18.741 19.5519 17.3451 20.2276 15.7145C20.9032 14.0839 21.0845 12.2907 20.7489 10.5579C20.4133 8.82504 19.5756 7.22915 18.34 5.96876H18.38ZM12 19.7488C10.6667 19.761 9.35454 19.4157 8.2 18.7488L8 18.5488L5.15 19.3388L5.9 16.5388L5.73 16.2588C4.97332 15.0628 4.57751 13.674 4.59 12.2588C4.59793 10.7853 5.04261 9.34732 5.8678 8.1266C6.69299 6.90588 7.86163 5.95727 9.22595 5.40073C10.5903 4.84419 12.089 4.70471 13.5326 4.99993C14.9761 5.29514 16.2998 6.0118 17.336 7.05928C18.3723 8.10675 19.0747 9.43799 19.3544 10.8847C19.6341 12.3313 19.4786 13.8285 18.9074 15.1867C18.3362 16.545 17.3751 17.7034 16.1456 18.5154C14.9161 19.3274 13.4734 19.7566 12 19.7488ZM16.08 14.1688C15.86 14.0588 14.76 13.5188 14.55 13.4488C14.34 13.3788 14.2 13.3388 14.05 13.5588C13.9 13.7788 13.47 14.2888 13.34 14.4388C13.21 14.5888 13.08 14.5988 12.86 14.4888C12.2077 14.2112 11.6087 13.822 11.09 13.3388C10.6034 12.8852 10.1856 12.363 9.85 11.7888C9.82807 11.7498 9.81453 11.7067 9.81026 11.6622C9.806 11.6178 9.81109 11.5729 9.82522 11.5305C9.83935 11.4881 9.86221 11.4491 9.89231 11.4161C9.92241 11.3831 9.9591 11.3567 10 11.3388C10.1 11.2388 10.22 11.0788 10.33 10.9488C10.4217 10.8354 10.499 10.7111 10.56 10.5788C10.59 10.5181 10.6056 10.4514 10.6056 10.3838C10.6056 10.3161 10.59 10.2494 10.56 10.1888C10.5 10.0688 10.05 8.96876 9.87 8.51876C9.69 8.06876 9.5 8.14876 9.36 8.13876H8.87C8.75613 8.14176 8.64409 8.16816 8.54087 8.21634C8.43765 8.26451 8.34544 8.33341 8.27 8.41876C8.01131 8.6652 7.80797 8.96384 7.6735 9.29486C7.53902 9.62588 7.47647 9.98172 7.49 10.3388C7.56398 11.1835 7.87993 11.989 8.4 12.6588C9.36384 14.0943 10.6834 15.2554 12.23 16.0288C12.6438 16.2128 13.0679 16.3731 13.5 16.5088C13.9574 16.6438 14.4392 16.6745 14.91 16.5988C15.2223 16.5353 15.5179 16.4073 15.7779 16.2231C16.0379 16.0388 16.2566 15.8024 16.42 15.5288C16.5702 15.1969 16.6155 14.8271 16.55 14.4688C16.5 14.3388 16.35 14.3388 16.12 14.1688H16.08Z" fill="#2E2E2E"/>
</svg>
