<svg xmlns="http://www.w3.org/2000/svg" width="24" height="24" viewBox="0 0 24 24"><title>ico_category</title><g id="ico_category"><path d="M21.5,7H6.5A.5.5,0,0,1,6,6.5v-1A.5.5,0,0,1,6.5,5h15a.5.5,0,0,1,.5.5v1A.5.5,0,0,1,21.5,7Zm.5,5.5v-1a.5.5,0,0,0-.5-.5H6.5a.5.5,0,0,0-.5.5v1a.5.5,0,0,0,.5.5h15A.5.5,0,0,0,22,12.5Zm0,6v-1a.5.5,0,0,0-.5-.5H6.5a.5.5,0,0,0-.5.5v1a.5.5,0,0,0,.5.5h15A.5.5,0,0,0,22,18.5ZM3.5,7h-1A.5.5,0,0,1,2,6.5v-1A.5.5,0,0,1,2.5,5h1a.5.5,0,0,1,.5.5v1A.5.5,0,0,1,3.5,7ZM4,12.5v-1a.5.5,0,0,0-.5-.5h-1a.5.5,0,0,0-.5.5v1a.5.5,0,0,0,.5.5h1A.5.5,0,0,0,4,12.5Zm0,6v-1a.5.5,0,0,0-.5-.5h-1a.5.5,0,0,0-.5.5v1a.5.5,0,0,0,.5.5h1A.5.5,0,0,0,4,18.5Z"/></g></svg>