<svg width="27" height="32" viewBox="0 0 27 32" fill="none" xmlns="http://www.w3.org/2000/svg">
<g clip-path="url(#clip0_8576_12804)">
<path d="M17.9005 17.3214C17.8814 17.2777 17.8623 17.234 17.8402 17.1924C17.7727 17.0598 17.6894 16.9355 17.5922 16.8223C17.4938 16.7077 17.3823 16.6048 17.2598 16.5158L12.3773 12.9811L10.9091 11.9176L9.97821 11.244L9.97118 11.239C9.93 11.2102 9.88883 11.1825 9.84665 11.1567L9.80046 11.1309C9.77033 11.114 9.74121 11.0962 9.71008 11.0813L9.65384 11.0555C9.62572 11.0426 9.59861 11.0287 9.56949 11.0178L9.50923 10.996C9.48111 10.985 9.45401 10.9741 9.42589 10.9652L9.36162 10.9483C9.3335 10.9404 9.30638 10.9315 9.27826 10.9255L9.21199 10.9126C9.18387 10.9067 9.15676 10.9007 9.12964 10.8967L9.06035 10.8888C9.03324 10.8888 9.00713 10.8819 8.98001 10.8799H8.90871H8.83742H8.82938C8.80126 10.8799 8.77415 10.8799 8.74603 10.8799H8.67573C8.64762 10.8799 8.62051 10.8858 8.59239 10.8898L8.5231 10.8987C8.49498 10.8987 8.46686 10.9096 8.43975 10.9146C8.41263 10.9196 8.39456 10.9235 8.37247 10.9295C8.35037 10.9354 8.31522 10.9454 8.2871 10.9533L8.22384 10.9721C8.19471 10.9811 8.16559 10.993 8.13748 11.0039C8.10936 11.0148 8.0973 11.0178 8.07822 11.0267C8.05914 11.0356 8.01898 11.0535 7.98986 11.0674L7.93663 11.0932C7.9045 11.11 7.87236 11.1289 7.84123 11.1477L7.79906 11.1715C7.75487 11.2003 7.71068 11.2301 7.6675 11.2628L0.686187 16.5128C0.626884 16.5579 0.570221 16.6062 0.516474 16.6577C0.436389 16.7336 0.363141 16.8162 0.297556 16.9047C0.254359 16.9633 0.214464 17.0243 0.178054 17.0872C0.153953 17.1289 0.131863 17.1715 0.111778 17.2152C0.0916939 17.2589 0.0716059 17.3055 0.0515216 17.3551C0.0344499 17.3987 0.0183863 17.4424 0.00533152 17.487C-0.00772329 17.5317 -0.0147557 17.5575 -0.0227895 17.5932C-0.0308232 17.6289 -0.038855 17.6646 -0.0458845 17.7003C-0.0652145 17.8094 -0.0749561 17.9199 -0.0750046 18.0307V30.1339C-0.0747538 30.2311 -0.0673732 30.3283 -0.0529148 30.4245C-0.00599328 30.7229 0.111846 31.0061 0.290942 31.2508C0.470038 31.4955 0.705292 31.6947 0.977412 31.8323C1.01859 31.8541 1.06177 31.8729 1.10495 31.8918C1.16268 31.916 1.22167 31.9372 1.28169 31.9553C1.46757 32.0128 1.66129 32.042 1.8561 32.0416H16.116C16.2268 32.0408 16.3373 32.0308 16.4464 32.0118C16.4654 32.0118 16.4855 32.0069 16.5056 32.0029C16.9077 31.9208 17.2729 31.7143 17.5482 31.4134C17.8236 31.1125 17.9948 30.7328 18.037 30.3293C18.0421 30.2817 18.0431 30.2301 18.0441 30.1844C18.0441 30.1676 18.0441 30.1507 18.0441 30.1339V18.0555C18.0441 17.9292 18.0313 17.8032 18.0059 17.6795C17.9825 17.557 17.9472 17.4371 17.9005 17.3214ZM5.80368 22.3214C5.80368 22.0547 5.85685 21.7907 5.96017 21.5444C6.06349 21.298 6.21492 21.0742 6.40581 20.8857C6.59671 20.6972 6.82333 20.5478 7.07273 20.4458C7.32212 20.3439 7.5894 20.2915 7.85931 20.2916H10.1148C10.6597 20.2916 11.1823 20.5054 11.5676 20.8861C11.9529 21.2667 12.1694 21.783 12.1694 22.3214V24.5495C12.1695 24.8162 12.1165 25.0802 12.0133 25.3266C11.9101 25.573 11.7588 25.7968 11.568 25.9854C11.3772 26.174 11.1506 26.3236 10.9013 26.4257C10.6519 26.5277 10.3847 26.5803 10.1148 26.5803H7.85931C7.58932 26.5804 7.32195 26.528 7.07249 26.426C6.82303 26.324 6.59637 26.1744 6.40547 25.9858C6.21456 25.7972 6.06314 25.5733 5.95988 25.3268C5.85662 25.0804 5.80354 24.8162 5.80368 24.5495V22.3214Z" fill="white"/>
<path d="M26.9484 26.989V10.2539C26.9507 9.68971 26.7926 9.13625 26.4922 8.65642C26.1919 8.17659 25.7612 7.78965 25.2493 7.53959L13.5 0.308436C13.0221 0.0709555 12.4895 -0.0382851 11.9555 -0.00833713C11.4214 0.0216109 10.9047 0.189696 10.4572 0.479072C10.0211 0.767787 9.66481 1.1594 9.42055 1.61844C9.17629 2.07749 9.05178 2.58948 9.05832 3.10804V8.03562C9.69992 8.06337 10.3292 8.21929 10.9081 8.49395C11.1786 8.62174 11.4365 8.77419 11.6783 8.94931L12.7579 9.73106L18.9599 14.2211C19.5696 14.6626 20.0654 15.2399 20.407 15.9061C20.7487 16.5723 20.9265 17.3087 20.9261 18.0555V30.1388C20.9261 30.1557 20.9261 30.1725 20.9261 30.1894C20.9201 30.8182 20.787 31.4395 20.5345 32.0168L25.0173 32.0029C25.5315 32.0013 26.024 31.7983 26.3867 31.4384C26.7495 31.0785 26.953 30.5912 26.9525 30.0832L26.9484 26.989Z" fill="white"/>
</g>
<defs>
<clipPath id="clip0_8576_12804">
<rect width="27" height="32" fill="white"/>
</clipPath>
</defs>
</svg>
