<svg xmlns="http://www.w3.org/2000/svg" width="24" height="24" viewBox="0 0 24 24"><title>ico_brightness</title><g id="ico_brightness"><path d="M16,12a4,4,0,1,1-4-4A4,4,0,0,1,16,12ZM13,2.5a.5.5,0,0,0-.5-.5h-1a.5.5,0,0,0-.5.5V6h2Zm-2,19a.5.5,0,0,0,.5.5h1a.5.5,0,0,0,.5-.5V18H11ZM21.5,11H18v2h3.5a.5.5,0,0,0,.5-.5v-1A.5.5,0,0,0,21.5,11ZM6,11H2.5a.5.5,0,0,0-.5.5v1a.5.5,0,0,0,.5.5H6Zm11,4.54L15.54,17,18,19.42a.5.5,0,0,0,.71,0l.7-.7a.5.5,0,0,0,0-.71ZM7.05,8.46,8.46,7.05,6,4.58a.5.5,0,0,0-.71,0l-.7.7a.5.5,0,0,0,0,.71ZM4.58,18a.5.5,0,0,0,0,.71l.7.7a.5.5,0,0,0,.71,0L8.46,17,7.05,15.54ZM19.42,6a.5.5,0,0,0,0-.71l-.7-.7a.5.5,0,0,0-.71,0L15.54,7.05,17,8.46Z"/></g></svg>