<svg width="24" height="24" viewBox="0 0 24 24" fill="none" xmlns="http://www.w3.org/2000/svg">
<path d="M15.84 12.59L6 21.86C5.92439 21.9326 5.82787 21.9796 5.72409 21.9944C5.62031 22.0092 5.51451 21.9909 5.42165 21.9423C5.32879 21.8937 5.25357 21.8171 5.20662 21.7233C5.15966 21.6296 5.14335 21.5235 5.16 21.42L6.27 13.5L2.35 12.26C2.26717 12.2319 2.19298 12.1829 2.13454 12.1178C2.07611 12.0527 2.03539 11.9737 2.01631 11.8884C1.99723 11.803 2.00042 11.7142 2.02559 11.6304C2.05075 11.5466 2.09704 11.4707 2.16 11.41L12 2.14C12.0756 2.06739 12.1721 2.02038 12.2759 2.00561C12.3797 1.99084 12.4855 2.00906 12.5783 2.05771C12.6712 2.10635 12.7464 2.18294 12.7934 2.27667C12.8403 2.37039 12.8566 2.4765 12.84 2.58L11.73 10.5L15.65 11.74C15.7348 11.7657 15.8113 11.8134 15.8716 11.8783C15.9319 11.9432 15.9739 12.023 15.9932 12.1095C16.0125 12.196 16.0085 12.2861 15.9816 12.3705C15.9547 12.4549 15.9058 12.5307 15.84 12.59ZM21 9H23L20 0H18L15 9H17L17.57 7H20.43L21 9ZM18.14 5L19 2L19.86 5H18.14Z" fill="black"/>
</svg>
