<svg xmlns="http://www.w3.org/2000/svg" width="24" height="24" viewBox="0 0 24 24"><g id="ico_enlarge"><path d="M21,3.5V8a1,1,0,0,1-2,0V6.41L15.41,10A1,1,0,0,1,14,10a1,1,0,0,1,0-1.42L17.59,5H16a1,1,0,0,1,0-2h4.5A.5.5,0,0,1,21,3.5ZM20,15a1,1,0,0,0-1,1v1.58L15.41,14A1,1,0,0,0,14,15.41L17.59,19H16a1,1,0,0,0,0,2h4.51a.49.49,0,0,0,.49-.5V16A1,1,0,0,0,20,15ZM6.41,5H8A1,1,0,0,0,8,3H3.5a.5.5,0,0,0-.5.5V8A1,1,0,0,0,5,8V6.41L8.59,10A1,1,0,0,0,10,10a1,1,0,0,0,0-1.42Zm2.18,9L5,17.58V16a1,1,0,0,0-2,0v4.5a.51.51,0,0,0,.5.5H8a1,1,0,0,0,0-2H6.41L10,15.41A1,1,0,0,0,8.59,14Z"/></g></svg>