<svg xmlns="http://www.w3.org/2000/svg" width="24" height="24" viewBox="0 0 24 24"><title>ico_attachment</title><path d="M9.66,14.27a.9.9,0,0,0-.27.63.88.88,0,0,0,.27.62,1.05,1.05,0,0,0,1.44,0l7-6.74a2.69,2.69,0,0,0,.86-2,2.73,2.73,0,0,0-.81-1.93A3.29,3.29,0,0,0,13.74,5l-7.3,7a4.55,4.55,0,0,0,0,6.67,5.42,5.42,0,0,0,7.23-.2l4.08-3.91a.5.5,0,0,1,.71,0l.69.72a.5.5,0,0,1,0,.71L14.9,20.05a7.18,7.18,0,0,1-9.84,0,6.54,6.54,0,0,1,0-9.53l7.27-7a5.35,5.35,0,0,1,7.2-.16,4.69,4.69,0,0,1,0,6.83l-7,6.74a3.06,3.06,0,0,1-4.2,0,2.85,2.85,0,0,1,0-4.14l6.47-6.24a.5.5,0,0,1,.71,0l.69.73a.49.49,0,0,1,0,.7Z"/></svg>