<svg xmlns="http://www.w3.org/2000/svg" width="24" height="24" viewBox="0 0 24 24"><g id="ico_link"><path d="M14.37,15.5,9.13,20.74a4.2,4.2,0,0,1-5.93.06,4.2,4.2,0,0,1,.06-5.93l3.55-3.55a5.55,5.55,0,0,0,.45,2.48L4.73,16.34a2.07,2.07,0,1,0,2.93,2.93L12.91,14a2.11,2.11,0,0,0,0-3,2.07,2.07,0,0,0-.42-.31L14,9.23c.14.11.28.21.41.33A4.21,4.21,0,0,1,14.37,15.5ZM10,14.76l1.51-1.51a3,3,0,0,1-.42-.31,2.11,2.11,0,0,1,0-3l5.24-5.25a2.08,2.08,0,1,1,2.94,2.94l-2.54,2.53a5.62,5.62,0,0,1,.45,2.49l3.55-3.55a4.21,4.21,0,0,0,.07-5.94,4.21,4.21,0,0,0-5.94.07L9.63,8.5a4.2,4.2,0,0,0-.06,5.93A2.51,2.51,0,0,0,10,14.76Z"/></g></svg>