<svg xmlns="http://www.w3.org/2000/svg" width="24" height="24" viewBox="0 0 24 24"><defs><style>.cls-1{fill:#050400;}</style></defs><g id="ico_social"><path class="cls-1" d="M13.17,14.17c2.18-1.41,5.23-3.81,5.76-6.4a5.09,5.09,0,0,0,.12-1.06A4.09,4.09,0,0,0,14.93,2.6,4,4,0,0,0,12,3.84,4.11,4.11,0,0,0,5,6.71a5.62,5.62,0,0,0,.12,1.06c.53,2.59,3.52,4.93,5.75,6.4a8.77,8.77,0,0,0,1.18.71c.2-.1.43-.25.66-.39ZM9.06,4.25A2.52,2.52,0,0,0,6.54,6.71a.45.45,0,0,1-.41.47.5.5,0,0,1-.47-.47,3.41,3.41,0,0,1,3.4-3.4.46.46,0,0,1,.47.47A.46.46,0,0,1,9.06,4.25Zm2.35,17.14H7.3v-.3a.92.92,0,0,1,.59-.82v-.12a1,1,0,0,0-.47-.76l-1.59-.82a1,1,0,0,1-.41-.41l-1-1.94c0-.12-.06-.18-.06-.3l-.53-3.46a.59.59,0,0,1,.35-.7.67.67,0,0,1,.94.41L6,15.29a1,1,0,0,0,.24.41L7.54,17a.46.46,0,0,0,.7-.59l-.76-1.11a.61.61,0,0,1-.06-.71.75.75,0,0,1,1.12-.23l2.11,2.17a.74.74,0,0,1,.24.47l.39,3.29a.27.27,0,0,1,.13.24Zm8.75-8.92-.53,3.46c0,.12-.06.18-.06.3l-1,1.94a1,1,0,0,1-.41.41l-1.59.82a.93.93,0,0,0-.47.76v.12a.92.92,0,0,1,.59.82v.3H12.59v-.88a.25.25,0,0,1,.15-.24L13.17,17a.74.74,0,0,1,.24-.47l2.05-2.17a.75.75,0,0,1,1.12.23.61.61,0,0,1-.06.71l-.76,1.11a.46.46,0,0,0,.7.59l1.29-1.29a1,1,0,0,0,.24-.41l.88-3.11a.67.67,0,0,1,.94-.41A.59.59,0,0,1,20.16,12.47Z"/></g></svg>