<svg id="ico_rupiah" xmlns="http://www.w3.org/2000/svg" width="24" height="24" viewBox="0 0 24 24"><title>ico_rupiah</title><path d="M16.51,12.5a1,1,0,0,1-.89,1H14.5v-2h1A1,1,0,0,1,16.51,12.5Zm5,.64L20,14.67v3.17a1.66,1.66,0,0,1-1.66,1.66H15.17l-2,2a1.61,1.61,0,0,1-2.28,0l-2-2H5.66A1.66,1.66,0,0,1,4,17.84V14.67L2.47,13.14a1.61,1.61,0,0,1,0-2.28L4,9.33V6.16A1.66,1.66,0,0,1,5.66,4.5H8.83l2-2a1.61,1.61,0,0,1,2.28,0l2,2h3.17A1.66,1.66,0,0,1,20,6.16V9.33l1.53,1.53A1.61,1.61,0,0,1,21.53,13.14ZM12,13.25a2.74,2.74,0,0,0-.8-1.93A2.47,2.47,0,0,0,12,9,2.57,2.57,0,0,0,9.39,7H7.49a.51.51,0,0,0-.5.5v6.76a.75.75,0,0,0,1.5,0V12h.78a1.23,1.23,0,0,1,1.23,1.23v1a.75.75,0,0,0,1.5,0Zm6-1A2.6,2.6,0,0,0,15.36,10H13.5a.5.5,0,0,0-.5.5v6.76a.75.75,0,0,0,1.5,0V15h1A2.49,2.49,0,0,0,18,12.24ZM9.5,8.49h-1v2H9.61a1,1,0,0,0-.11-2Z"/></svg>