<svg xmlns="http://www.w3.org/2000/svg" width="24" height="24" viewBox="0 0 24 24"><title>ico_ducktape</title><g id="ico_ducktape"><path d="M13,10c0,.55225-1.34314,1-3,1s-3-.44775-3-1,1.34314-1,3-1S13,9.44769,13,10Zm8.139,1.139L22,12H18v2c0,2.20911-3.58173,4-8,4s-8-1.79089-8-4V10c0-2.20917,3.58173-4,8-4H22l-.8598.85974a.19842.19842,0,0,0,0,.28046l.71795.71789a.20074.20074,0,0,1,0,.28376l-.71984.71984a.19545.19545,0,0,0,0,.27655l.72143.72144a.19845.19845,0,0,1,0,.28058l-.7207.7207A.19665.19665,0,0,0,21.139,11.139ZM17,10c0-1.65686-3.134-3-7-3S3,8.34314,3,10s3.134,3,7,3S17,11.65686,17,10Z"/></g></svg>