<svg width="12" height="12" viewBox="0 0 12 12" fill="none" xmlns="http://www.w3.org/2000/svg">
<path d="M11 4.81C11.0353 4.92229 11.0353 5.04271 11 5.155C10.9123 5.40683 10.7469 5.62432 10.5276 5.77617C10.3084 5.92802 10.0466 6.00639 9.78002 6C9.48369 6.00812 9.19378 5.91272 8.96017 5.73021C8.72657 5.5477 8.56385 5.2895 8.50003 5C8.44555 5.28669 8.29093 5.54467 8.06378 5.72785C7.83663 5.91104 7.55174 6.0075 7.26003 6C6.9659 6.00828 6.67828 5.91253 6.4478 5.72961C6.21732 5.54669 6.05876 5.28832 6.00003 5C5.94129 5.28832 5.78273 5.54669 5.55225 5.72961C5.32177 5.91253 5.03415 6.00828 4.74002 6C4.44831 6.0075 4.16342 5.91104 3.93627 5.72785C3.70912 5.54467 3.5545 5.28669 3.50003 5C3.4362 5.2895 3.27348 5.5477 3.03988 5.73021C2.80627 5.91272 2.51636 6.00812 2.22003 6C1.96019 5.99082 1.70869 5.90596 1.49641 5.75585C1.28412 5.60574 1.12029 5.39691 1.02503 5.155C0.990031 5.04266 0.990031 4.92234 1.02503 4.81L2.50003 1.5H9.46502C9.50002 1.5 11 4.81 11 4.81ZM9.78002 6.75C9.31875 6.75474 8.86882 6.6071 8.50003 6.33C8.14282 6.60729 7.70219 6.75534 7.25003 6.75C6.79771 6.75119 6.35788 6.60165 6.00003 6.325C5.63947 6.60376 5.19577 6.75342 4.74002 6.75C4.29128 6.75308 3.85453 6.60515 3.50003 6.33C3.13396 6.60502 2.68788 6.75254 2.23003 6.75C2.15677 6.75494 2.08328 6.75494 2.01003 6.75V9.805C2.01003 10.185 2.22503 10.52 2.47003 10.52H4.47002V9C4.46998 8.80047 4.50976 8.60293 4.58701 8.41896C4.66426 8.23499 4.77744 8.06828 4.91992 7.92859C5.0624 7.7889 5.23132 7.67905 5.41678 7.60545C5.60225 7.53186 5.80053 7.49601 6.00003 7.5C6.20035 7.49466 6.39971 7.52951 6.58634 7.60249C6.77297 7.67548 6.94309 7.78512 7.08664 7.92494C7.23019 8.06477 7.34427 8.23194 7.42214 8.41658C7.50001 8.60123 7.5401 8.79961 7.54003 9V10.5H9.54002C9.78502 10.5 10 10.165 10 9.785V6.735C9.92502 6.74 9.85502 6.75 9.78002 6.75Z" fill="#8D8D8D"/>
</svg>
