<svg width="24" height="24" viewBox="0 0 24 24" fill="none" xmlns="http://www.w3.org/2000/svg">
    <path
        d="M21.3604 10.7999H19.7044C19.446 9.16789 18.6775 7.65959 17.5091 6.49121C16.3407 5.32282 14.8324 4.55434 13.2004 4.2959V2.6399C13.2004 2.57625 13.1751 2.51521 13.1301 2.4702C13.0851 2.42519 13.024 2.3999 12.9604 2.3999H11.0404C10.9767 2.3999 10.9157 2.42519 10.8707 2.4702C10.8257 2.51521 10.8004 2.57625 10.8004 2.6399V4.2959C9.16838 4.55434 7.66008 5.32282 6.4917 6.49121C5.32331 7.65959 4.55483 9.16789 4.29639 10.7999H2.64039C2.57674 10.7999 2.51569 10.8252 2.47069 10.8702C2.42568 10.9152 2.40039 10.9762 2.40039 11.0399V12.9599C2.40039 13.0236 2.42568 13.0846 2.47069 13.1296C2.51569 13.1746 2.57674 13.1999 2.64039 13.1999H4.29639C4.55483 14.8319 5.32331 16.3402 6.4917 17.5086C7.66008 18.677 9.16838 19.4455 10.8004 19.7039V21.3599C10.8004 21.4236 10.8257 21.4846 10.8707 21.5296C10.9157 21.5746 10.9767 21.5999 11.0404 21.5999H12.9604C13.024 21.5999 13.0851 21.5746 13.1301 21.5296C13.1751 21.4846 13.2004 21.4236 13.2004 21.3599V19.7039C14.8324 19.4455 16.3407 18.677 17.5091 17.5086C18.6775 16.3402 19.446 14.8319 19.7044 13.1999H21.3604C21.424 13.1999 21.4851 13.1746 21.5301 13.1296C21.5751 13.0846 21.6004 13.0236 21.6004 12.9599V11.0399C21.6004 10.9762 21.5751 10.9152 21.5301 10.8702C21.4851 10.8252 21.424 10.7999 21.3604 10.7999ZM12.0004 17.3999C10.9324 17.3999 9.88834 17.0832 9.00031 16.4898C8.11229 15.8965 7.42015 15.0531 7.01144 14.0664C6.60273 13.0797 6.49579 11.9939 6.70415 10.9464C6.91251 9.89892 7.42681 8.93673 8.18201 8.18153C8.93722 7.42632 9.8994 6.91202 10.9469 6.70366C11.9944 6.4953 13.0802 6.60224 14.0669 7.01095C15.0536 7.41967 15.897 8.1118 16.4903 8.99982C17.0837 9.88785 17.4004 10.9319 17.4004 11.9999C17.3972 13.4311 16.8273 14.8028 15.8153 15.8148C14.8033 16.8268 13.4316 17.3967 12.0004 17.3999ZM12.0004 14.9999C11.407 14.9999 10.827 14.824 10.3337 14.4943C9.84033 14.1647 9.45581 13.6961 9.22875 13.148C9.00169 12.5998 8.94228 11.9966 9.05803 11.4146C9.17379 10.8327 9.45951 10.2981 9.87907 9.87858C10.2986 9.45902 10.8332 9.1733 11.4151 9.05755C11.9971 8.94179 12.6003 9.0012 13.1484 9.22826C13.6966 9.45533 14.1652 9.83984 14.4948 10.3332C14.8244 10.8265 15.0004 11.4066 15.0004 11.9999C15.0004 12.7956 14.6843 13.5586 14.1217 14.1212C13.5591 14.6838 12.796 14.9999 12.0004 14.9999Z"
        fill="#D1083A" />
</svg>
