<svg width="20" height="20" viewBox="0 0 20 20" fill="none" xmlns="http://www.w3.org/2000/svg">
<path fill-rule="evenodd" clip-rule="evenodd" d="M17 16V12C17 11.448 16.553 11 16 11H12C11.447 11 11 11.448 11 12V16C11 16.552 11.447 17 12 17H16C16.553 17 17 16.552 17 16ZM9 16V12C9 11.448 8.553 11 8 11H4C3.447 11 3 11.448 3 12V16C3 16.552 3.447 17 4 17H8C8.553 17 9 16.552 9 16ZM17 8V4C17 3.448 16.553 3 16 3H12C11.447 3 11 3.448 11 4V8C11 8.552 11.447 9 12 9H16C16.553 9 17 8.552 17 8ZM8 9H4C3.447 9 3 8.552 3 8V4C3 3.448 3.447 3 4 3H8C8.553 3 9 3.448 9 4V8C9 8.552 8.553 9 8 9Z" fill="#2E2E2E"/>
</svg>
