<svg width="24" height="24" viewBox="0 0 24 24" fill="none" xmlns="http://www.w3.org/2000/svg">
<path d="M14.88 2.3999H15.6L19.2 5.9999V6.7199L15.6 5.9999L14.88 2.3999ZM19.2 8.5439V19.1999C19.2 19.8364 18.9472 20.4469 18.4971 20.897C18.047 21.347 17.4366 21.5999 16.8 21.5999H7.20005C6.56353 21.5999 5.95308 21.347 5.50299 20.897C5.05291 20.4469 4.80005 19.8364 4.80005 19.1999V4.7999C4.80005 4.16338 5.05291 3.55293 5.50299 3.10285C5.95308 2.65276 6.56353 2.3999 7.20005 2.3999H13.056L14.076 7.5239L19.2 8.5439ZM13.2 18.2999C13.1969 18.0622 13.1011 17.8351 12.933 17.6669C12.7649 17.4988 12.5378 17.403 12.3 17.3999H8.70005C8.46135 17.3999 8.23244 17.4947 8.06365 17.6635C7.89487 17.8323 7.80005 18.0612 7.80005 18.2999C7.80005 18.5386 7.89487 18.7675 8.06365 18.9363C8.23244 19.1051 8.46135 19.1999 8.70005 19.1999H12.3C12.5378 19.1968 12.7649 19.101 12.933 18.9329C13.1011 18.7647 13.1969 18.5376 13.2 18.2999ZM16.2 14.0999C16.1969 13.8622 16.1011 13.6351 15.933 13.4669C15.7649 13.2988 15.5378 13.203 15.3 13.1999H8.70005C8.46135 13.1999 8.23244 13.2947 8.06365 13.4635C7.89487 13.6323 7.80005 13.8612 7.80005 14.0999C7.80005 14.3386 7.89487 14.5675 8.06365 14.7363C8.23244 14.9051 8.46135 14.9999 8.70005 14.9999H15.3C15.5378 14.9968 15.7649 14.901 15.933 14.7329C16.1011 14.5647 16.1969 14.3376 16.2 14.0999Z" fill="#2E2E2E"/>
</svg>
