<svg xmlns="http://www.w3.org/2000/svg" width="20" height="20" viewBox="0 0 20 20"><g id="ico_rupiah_minor"><path d="M13.61,10.4a.81.81,0,0,1-.71.8H12V9.6h.8A.8.8,0,0,1,13.61,10.4Zm4,.51L16.4,12.14v2.53A1.32,1.32,0,0,1,15.07,16H12.54l-1.63,1.62a1.27,1.27,0,0,1-1.82,0L7.46,16H4.93A1.32,1.32,0,0,1,3.6,14.67V12.14L2.38,10.91a1.27,1.27,0,0,1,0-1.82L3.6,7.86V5.33A1.32,1.32,0,0,1,4.93,4H7.46L9.09,2.38a1.27,1.27,0,0,1,1.82,0L12.54,4h2.53A1.32,1.32,0,0,1,16.4,5.33V7.86l1.22,1.23A1.27,1.27,0,0,1,17.62,10.91ZM10,11a2.18,2.18,0,0,0-.64-1.55A2,2,0,0,0,10,7.61,2.06,2.06,0,0,0,7.91,6H6.39a.4.4,0,0,0-.4.4V11.8a.61.61,0,0,0,1.21,0V10h.61a1,1,0,0,1,1,1v.82a.6.6,0,1,0,1.2,0Zm4.8-.81A2.09,2.09,0,0,0,12.69,8.4H11.2a.4.4,0,0,0-.4.4v5.41a.6.6,0,1,0,1.2,0V12.4h.8A2,2,0,0,0,14.8,10.19ZM8,7.2H7.2V8.79h.89A.8.8,0,0,0,8,7.2Z"/></g></svg>